<svg width="113" height="117" viewBox="0 0 113 117" fill="none" xmlns="http://www.w3.org/2000/svg">
<g filter="url(#filter0_d)">
<path d="M77.2187 20.0846C71.3232 20.0846 65.549 21.6503 61.063 24.2649C62.3894 19.7921 66.041 13.4944 75.9389 13.4944V9.24933C64.9208 9.24933 59.607 15.0318 57.3631 20.9423C57.8784 16.7554 58.2008 11.7591 57.1986 9.56679C55.327 5.46802 50.3922 3.62474 46.1771 5.44808C41.9687 7.27141 40.0722 12.0716 41.947 16.172C42.798 18.0336 45.8414 20.565 48.9096 22.7756C44.7445 21.0039 40.2653 20.0887 35.7391 20.0846C22.266 20.0846 8.2793 28.1791 8.2793 50.1506C8.2793 72.4728 34.5091 104.472 45.9544 104.472C51.1485 104.472 53.0184 101.226 56.0318 101.226C59.0967 101.226 60.084 104.467 66.7308 104.467C78.1844 104.467 104.682 72.5758 104.682 50.1506C104.682 28.1808 90.6935 20.0846 77.2187 20.0846ZM66.7291 99.4804C64.1313 99.4804 63.0908 98.8671 61.7727 98.0909C60.448 97.3097 58.6297 96.2393 56.0318 96.2393C53.4339 96.2393 51.5175 97.308 49.975 98.1657C48.6021 98.9336 47.6065 99.4854 45.9544 99.4854C43.2501 99.4854 35.3019 94.155 26.8335 82.7147C18.3367 71.2395 13.2656 59.0662 13.2656 50.1506C13.2656 41.4594 15.6441 34.8641 20.3329 30.546C24.1674 27.0156 29.6408 25.071 35.7407 25.071C42.5255 25.071 49.2653 27.4877 52.9103 31.2274L56.4806 34.8891L60.0508 31.2274C63.6958 27.4877 70.434 25.071 77.2171 25.071C82.491 25.071 99.6955 26.881 99.6955 50.1506C99.6955 59.0878 94.5795 71.2677 86.008 82.7313C77.4647 94.1583 69.455 99.4804 66.7291 99.4804Z" fill="#7E7E7E"/>
</g>
<defs>
<filter id="filter0_d" x="0.279297" y="0.744629" width="112.403" height="115.727" filterUnits="userSpaceOnUse" color-interpolation-filters="sRGB">
<feFlood flood-opacity="0" result="BackgroundImageFix"/>
<feColorMatrix in="SourceAlpha" type="matrix" values="0 0 0 0 0 0 0 0 0 0 0 0 0 0 0 0 0 0 127 0"/>
<feOffset dy="4"/>
<feGaussianBlur stdDeviation="4"/>
<feColorMatrix type="matrix" values="0 0 0 0 0 0 0 0 0 0 0 0 0 0 0 0 0 0 0.15 0"/>
<feBlend mode="normal" in2="BackgroundImageFix" result="effect1_dropShadow"/>
<feBlend mode="normal" in="SourceGraphic" in2="effect1_dropShadow" result="shape"/>
</filter>
</defs>
</svg>
