<svg width="110" height="23" viewBox="0 0 110 23" fill="none" xmlns="http://www.w3.org/2000/svg">
<path d="M109.197 8.17678C109.294 8.07915 109.294 7.92085 109.197 7.82322L107.606 6.23223C107.508 6.1346 107.35 6.1346 107.252 6.23223C107.155 6.32986 107.155 6.48816 107.252 6.58579L108.666 8L107.252 9.41421C107.155 9.51184 107.155 9.67014 107.252 9.76777C107.35 9.8654 107.508 9.8654 107.606 9.76777L109.197 8.17678ZM90 8.25H109.02V7.75H90V8.25Z" fill="#FF98B1"/>
<line y1="15.75" x2="110" y2="15.75" stroke="#FF98B1" stroke-width="0.5"/>
<line y1="22.75" x2="35" y2="22.75" stroke="#FF98B1" stroke-width="0.5"/>
<path d="M3.984 6C4.496 6 4.948 6.124 5.34 6.372C5.732 6.62 6.036 6.972 6.252 7.428C6.476 7.884 6.588 8.416 6.588 9.024C6.588 9.624 6.476 10.156 6.252 10.62C6.036 11.084 5.728 11.444 5.328 11.7C4.936 11.956 4.488 12.084 3.984 12.084C3.544 12.084 3.156 11.992 2.82 11.808C2.484 11.616 2.228 11.344 2.052 10.992V11.472C2.052 11.648 1.996 11.792 1.884 11.904C1.78 12.008 1.636 12.06 1.452 12.06C1.268 12.06 1.12 12.008 1.008 11.904C0.896 11.792 0.84 11.648 0.84 11.472V4.056C0.84 3.88 0.896 3.74 1.008 3.636C1.128 3.532 1.28 3.48 1.464 3.48C1.64 3.48 1.78 3.532 1.884 3.636C1.996 3.732 2.052 3.864 2.052 4.032V7.104C2.228 6.752 2.484 6.48 2.82 6.288C3.156 6.096 3.544 6 3.984 6ZM3.696 11.124C4.216 11.124 4.62 10.94 4.908 10.572C5.204 10.204 5.352 9.688 5.352 9.024C5.352 8.368 5.208 7.864 4.92 7.512C4.632 7.152 4.224 6.972 3.696 6.972C3.168 6.972 2.76 7.152 2.472 7.512C2.192 7.872 2.052 8.384 2.052 9.048C2.052 9.712 2.192 10.224 2.472 10.584C2.76 10.944 3.168 11.124 3.696 11.124ZM11.5898 6C12.3658 6 12.9418 6.196 13.3178 6.588C13.7018 6.98 13.8938 7.576 13.8938 8.376V11.484C13.8938 11.668 13.8418 11.812 13.7378 11.916C13.6338 12.012 13.4898 12.06 13.3058 12.06C13.1298 12.06 12.9898 12.008 12.8858 11.904C12.7818 11.8 12.7298 11.66 12.7298 11.484V11.04C12.5778 11.376 12.3498 11.636 12.0458 11.82C11.7498 11.996 11.4018 12.084 11.0018 12.084C10.6178 12.084 10.2658 12.008 9.94584 11.856C9.62584 11.696 9.37384 11.476 9.18984 11.196C9.01384 10.916 8.92584 10.604 8.92584 10.26C8.92584 9.836 9.03384 9.504 9.24984 9.264C9.47384 9.016 9.83784 8.84 10.3418 8.736C10.8538 8.632 11.5538 8.58 12.4418 8.58H12.7178V8.232C12.7178 7.784 12.6258 7.46 12.4418 7.26C12.2578 7.06 11.9618 6.96 11.5538 6.96C11.2738 6.96 11.0098 6.996 10.7618 7.068C10.5138 7.14 10.2418 7.244 9.94584 7.38C9.72984 7.5 9.57784 7.56 9.48984 7.56C9.36984 7.56 9.26984 7.516 9.18984 7.428C9.11784 7.34 9.08184 7.228 9.08184 7.092C9.08184 6.972 9.11384 6.868 9.17784 6.78C9.24984 6.684 9.36184 6.592 9.51384 6.504C9.79384 6.352 10.1218 6.232 10.4978 6.144C10.8738 6.048 11.2378 6 11.5898 6ZM11.2178 11.184C11.6578 11.184 12.0178 11.036 12.2978 10.74C12.5778 10.436 12.7178 10.048 12.7178 9.576V9.264H12.5018C11.8778 9.264 11.3978 9.292 11.0618 9.348C10.7258 9.404 10.4858 9.5 10.3418 9.636C10.1978 9.764 10.1258 9.952 10.1258 10.2C10.1258 10.488 10.2298 10.724 10.4378 10.908C10.6458 11.092 10.9058 11.184 11.2178 11.184ZM19.2597 12.084C18.6917 12.084 18.1917 11.96 17.7597 11.712C17.3357 11.464 17.0037 11.112 16.7637 10.656C16.5317 10.2 16.4157 9.672 16.4157 9.072C16.4157 8.464 16.5357 7.928 16.7757 7.464C17.0237 7 17.3677 6.64 17.8077 6.384C18.2477 6.128 18.7517 6 19.3197 6C19.6237 6 19.9277 6.044 20.2317 6.132C20.5437 6.22 20.8197 6.34 21.0597 6.492C21.3157 6.668 21.4437 6.872 21.4437 7.104C21.4437 7.24 21.4077 7.356 21.3357 7.452C21.2637 7.54 21.1717 7.584 21.0597 7.584C20.9877 7.584 20.9157 7.568 20.8437 7.536C20.7717 7.496 20.6797 7.44 20.5677 7.368C20.3677 7.24 20.1797 7.144 20.0037 7.08C19.8357 7.008 19.6317 6.972 19.3917 6.972C18.8477 6.972 18.4237 7.156 18.1197 7.524C17.8237 7.892 17.6757 8.404 17.6757 9.06C17.6757 9.716 17.8237 10.224 18.1197 10.584C18.4157 10.936 18.8357 11.112 19.3797 11.112C19.6197 11.112 19.8317 11.076 20.0157 11.004C20.1997 10.932 20.3877 10.836 20.5797 10.716C20.6677 10.66 20.7557 10.612 20.8437 10.572C20.9317 10.532 21.0117 10.512 21.0837 10.512C21.1957 10.512 21.2877 10.56 21.3597 10.656C21.4317 10.744 21.4677 10.856 21.4677 10.992C21.4677 11.104 21.4357 11.208 21.3717 11.304C21.3157 11.392 21.2157 11.484 21.0717 11.58C20.8317 11.74 20.5517 11.864 20.2317 11.952C19.9117 12.04 19.5877 12.084 19.2597 12.084ZM28.6725 11.052C28.8165 11.172 28.8885 11.32 28.8885 11.496C28.8885 11.648 28.8365 11.78 28.7325 11.892C28.6285 12.004 28.5045 12.06 28.3605 12.06C28.2085 12.06 28.0725 12.004 27.9525 11.892L24.9645 9.252V11.472C24.9645 11.664 24.9085 11.812 24.7965 11.916C24.6845 12.012 24.5405 12.06 24.3645 12.06C24.1885 12.06 24.0405 12.012 23.9205 11.916C23.8085 11.812 23.7525 11.664 23.7525 11.472V4.068C23.7525 3.876 23.8085 3.732 23.9205 3.636C24.0405 3.532 24.1885 3.48 24.3645 3.48C24.5405 3.48 24.6845 3.532 24.7965 3.636C24.9085 3.732 24.9645 3.876 24.9645 4.068V8.772L27.7005 6.216C27.8365 6.096 27.9685 6.036 28.0965 6.036C28.2485 6.036 28.3805 6.092 28.4925 6.204C28.6045 6.316 28.6605 6.448 28.6605 6.6C28.6605 6.752 28.5925 6.892 28.4565 7.02L26.3205 8.976L28.6725 11.052ZM38.3838 11.136C38.5598 11.152 38.6838 11.2 38.7558 11.28C38.8358 11.352 38.8758 11.456 38.8758 11.592C38.8758 11.752 38.8118 11.876 38.6838 11.964C38.5638 12.044 38.3838 12.076 38.1438 12.06L37.8198 12.036C37.1718 11.988 36.6878 11.792 36.3678 11.448C36.0478 11.096 35.8878 10.58 35.8878 9.9V7.08H35.1678C34.8158 7.08 34.6398 6.924 34.6398 6.612C34.6398 6.468 34.6838 6.356 34.7718 6.276C34.8678 6.188 34.9998 6.144 35.1678 6.144H35.8878V4.908C35.8878 4.724 35.9398 4.58 36.0438 4.476C36.1558 4.372 36.3038 4.32 36.4878 4.32C36.6718 4.32 36.8198 4.372 36.9318 4.476C37.0438 4.58 37.0998 4.724 37.0998 4.908V6.144H38.2878C38.4558 6.144 38.5838 6.188 38.6718 6.276C38.7678 6.356 38.8158 6.468 38.8158 6.612C38.8158 6.764 38.7678 6.88 38.6718 6.96C38.5838 7.04 38.4558 7.08 38.2878 7.08H37.0998V9.984C37.0998 10.36 37.1758 10.636 37.3278 10.812C37.4878 10.988 37.7278 11.088 38.0478 11.112L38.3838 11.136ZM43.4903 12.084C42.9143 12.084 42.4063 11.96 41.9663 11.712C41.5343 11.464 41.1983 11.112 40.9583 10.656C40.7263 10.192 40.6103 9.656 40.6103 9.048C40.6103 8.432 40.7263 7.896 40.9583 7.44C41.1983 6.976 41.5343 6.62 41.9663 6.372C42.4063 6.124 42.9143 6 43.4903 6C44.0663 6 44.5703 6.124 45.0023 6.372C45.4423 6.62 45.7783 6.976 46.0103 7.44C46.2503 7.896 46.3703 8.432 46.3703 9.048C46.3703 9.656 46.2503 10.192 46.0103 10.656C45.7783 11.112 45.4423 11.464 45.0023 11.712C44.5703 11.96 44.0663 12.084 43.4903 12.084ZM43.4903 11.124C44.0263 11.124 44.4343 10.948 44.7143 10.596C45.0023 10.244 45.1463 9.728 45.1463 9.048C45.1463 8.376 45.0023 7.864 44.7143 7.512C44.4263 7.152 44.0183 6.972 43.4903 6.972C42.9623 6.972 42.5543 7.152 42.2663 7.512C41.9783 7.864 41.8343 8.376 41.8343 9.048C41.8343 9.728 41.9743 10.244 42.2543 10.596C42.5423 10.948 42.9543 11.124 43.4903 11.124ZM56.4517 6C57.8437 6 58.5397 6.788 58.5397 8.364V11.484C58.5397 11.66 58.4837 11.8 58.3717 11.904C58.2597 12.008 58.1117 12.06 57.9277 12.06C57.7437 12.06 57.5957 12.008 57.4837 11.904C57.3797 11.8 57.3277 11.66 57.3277 11.484V8.376C57.3277 7.896 57.2277 7.544 57.0277 7.32C56.8357 7.096 56.5317 6.984 56.1157 6.984C55.6277 6.984 55.2357 7.136 54.9397 7.44C54.6437 7.744 54.4957 8.152 54.4957 8.664V11.484C54.4957 11.66 54.4397 11.8 54.3277 11.904C54.2237 12.008 54.0797 12.06 53.8957 12.06C53.7117 12.06 53.5637 12.008 53.4517 11.904C53.3397 11.8 53.2837 11.66 53.2837 11.484V4.056C53.2837 3.88 53.3397 3.74 53.4517 3.636C53.5717 3.532 53.7237 3.48 53.9077 3.48C54.0837 3.48 54.2237 3.532 54.3277 3.636C54.4397 3.732 54.4957 3.864 54.4957 4.032V7.032C54.6957 6.696 54.9637 6.44 55.2997 6.264C55.6357 6.088 56.0197 6 56.4517 6ZM63.9418 12.084C63.3658 12.084 62.8578 11.96 62.4178 11.712C61.9858 11.464 61.6498 11.112 61.4098 10.656C61.1778 10.192 61.0618 9.656 61.0618 9.048C61.0618 8.432 61.1778 7.896 61.4098 7.44C61.6498 6.976 61.9858 6.62 62.4178 6.372C62.8578 6.124 63.3658 6 63.9418 6C64.5178 6 65.0218 6.124 65.4538 6.372C65.8938 6.62 66.2298 6.976 66.4618 7.44C66.7018 7.896 66.8218 8.432 66.8218 9.048C66.8218 9.656 66.7018 10.192 66.4618 10.656C66.2298 11.112 65.8938 11.464 65.4538 11.712C65.0218 11.96 64.5178 12.084 63.9418 12.084ZM63.9418 11.124C64.4778 11.124 64.8858 10.948 65.1658 10.596C65.4538 10.244 65.5978 9.728 65.5978 9.048C65.5978 8.376 65.4538 7.864 65.1658 7.512C64.8778 7.152 64.4698 6.972 63.9418 6.972C63.4138 6.972 63.0058 7.152 62.7178 7.512C62.4298 7.864 62.2858 8.376 62.2858 9.048C62.2858 9.728 62.4258 10.244 62.7058 10.596C62.9938 10.948 63.4058 11.124 63.9418 11.124ZM76.0913 6C77.4033 6 78.0593 6.788 78.0593 8.364V11.484C78.0593 11.668 78.0033 11.812 77.8913 11.916C77.7793 12.012 77.6313 12.06 77.4473 12.06C77.2713 12.06 77.1273 12.012 77.0153 11.916C76.9033 11.812 76.8473 11.668 76.8473 11.484V8.376C76.8473 7.888 76.7593 7.536 76.5833 7.32C76.4073 7.096 76.1313 6.984 75.7553 6.984C75.3153 6.984 74.9673 7.136 74.7113 7.44C74.4553 7.736 74.3273 8.144 74.3273 8.664V11.484C74.3273 11.668 74.2713 11.812 74.1593 11.916C74.0473 12.012 73.8993 12.06 73.7153 12.06C73.5393 12.06 73.3953 12.012 73.2833 11.916C73.1713 11.812 73.1153 11.668 73.1153 11.484V8.376C73.1153 7.888 73.0273 7.536 72.8513 7.32C72.6753 7.096 72.3993 6.984 72.0233 6.984C71.5833 6.984 71.2313 7.136 70.9673 7.44C70.7113 7.736 70.5833 8.144 70.5833 8.664V11.484C70.5833 11.668 70.5273 11.812 70.4153 11.916C70.3033 12.012 70.1593 12.06 69.9833 12.06C69.8073 12.06 69.6593 12.012 69.5393 11.916C69.4273 11.812 69.3713 11.668 69.3713 11.484V6.6C69.3713 6.424 69.4313 6.284 69.5513 6.18C69.6713 6.076 69.8153 6.024 69.9833 6.024C70.1513 6.024 70.2873 6.076 70.3913 6.18C70.5033 6.276 70.5593 6.412 70.5593 6.588V7.032C70.7353 6.696 70.9793 6.44 71.2913 6.264C71.6033 6.088 71.9633 6 72.3713 6C72.8193 6 73.1873 6.092 73.4753 6.276C73.7713 6.46 73.9913 6.744 74.1353 7.128C74.3113 6.784 74.5713 6.512 74.9153 6.312C75.2593 6.104 75.6513 6 76.0913 6ZM85.5029 10.524C85.6149 10.524 85.7069 10.568 85.7789 10.656C85.8509 10.744 85.8869 10.856 85.8869 10.992C85.8869 11.224 85.7429 11.42 85.4549 11.58C85.1749 11.74 84.8669 11.864 84.5309 11.952C84.2029 12.04 83.8869 12.084 83.5829 12.084C82.6549 12.084 81.9229 11.816 81.3869 11.28C80.8509 10.736 80.5829 9.996 80.5829 9.06C80.5829 8.46 80.6989 7.928 80.9309 7.464C81.1709 7 81.5029 6.64 81.9269 6.384C82.3589 6.128 82.8469 6 83.3909 6C84.1749 6 84.7949 6.252 85.2509 6.756C85.7069 7.26 85.9349 7.94 85.9349 8.796C85.9349 9.116 85.7909 9.276 85.5029 9.276H81.7949C81.8749 10.516 82.4709 11.136 83.5829 11.136C83.8789 11.136 84.1349 11.096 84.3509 11.016C84.5669 10.936 84.7949 10.832 85.0349 10.704C85.0589 10.688 85.1229 10.656 85.2269 10.608C85.3389 10.552 85.4309 10.524 85.5029 10.524ZM83.4149 6.888C82.9509 6.888 82.5789 7.036 82.2989 7.332C82.0189 7.628 81.8509 8.044 81.7949 8.58H84.8909C84.8669 8.036 84.7269 7.62 84.4709 7.332C84.2229 7.036 83.8709 6.888 83.4149 6.888Z" fill="#FF98B1"/>
</svg>
