<svg width="44" height="9" viewBox="0 0 44 9" fill="none" xmlns="http://www.w3.org/2000/svg">
<path d="M42.7012 3.59605C42.2279 3.03039 41.4431 2.64976 40.6089 2.48708C39.7641 2.32793 38.8785 2.34596 37.979 2.56352C36.2423 3.0006 34.8959 4.09742 33.5586 5.02645C32.2257 5.97823 30.7156 6.83789 28.9967 7.32828C28.5546 7.45254 28.1591 7.54505 27.6758 7.6164C27.2466 7.67951 26.7815 7.71401 26.3298 7.71244C25.4217 7.71479 24.5054 7.56975 23.6711 7.28202C23.0879 7.08132 22.546 6.7932 22.09 6.44079C22.1351 6.39414 22.1817 6.34828 22.2244 6.29967C22.8326 5.61524 23.1522 4.79204 23.2142 3.96923C23.2684 3.14093 23.0279 2.31068 22.4399 1.60822C22.3218 1.46827 22.1865 1.3393 22.0425 1.217C22.414 0.9818 22.834 0.801481 23.2794 0.672905C24.9071 0.216226 26.7522 0.416537 28.0794 1.0994C29.4172 1.76737 30.118 3.13937 29.6121 4.18914C29.0999 5.23578 27.7377 5.80967 26.6342 5.73166C25.4951 5.66385 24.6542 4.97706 24.5126 4.33262C24.3657 3.66935 24.8438 3.17504 25.1903 2.99198C25.3703 2.8928 25.5335 2.85399 25.6386 2.83361C25.7529 2.82224 25.8134 2.81479 25.8134 2.81479C25.8412 2.81166 25.8575 2.79402 25.8551 2.77128C25.8522 2.74972 25.8273 2.73482 25.8023 2.73639C25.8158 2.74698 25.5359 2.71052 25.1274 2.91475C24.7473 3.10644 24.2159 3.618 24.3503 4.35692C24.4895 5.06762 25.3727 5.82378 26.6073 5.92609C27.8231 6.03193 29.3001 5.45765 29.9241 4.29146C30.5342 3.09664 29.7873 1.56706 28.3271 0.790897C26.8718 0.00689716 24.9138 -0.229479 23.099 0.241313C22.5734 0.379689 22.0535 0.600777 21.599 0.891641C21.1449 0.600777 20.6246 0.379689 20.0975 0.241313C18.2846 -0.229479 16.3242 0.00689716 14.8694 0.790897C13.4092 1.56706 12.6628 3.09664 13.2734 4.29146C13.8969 5.45726 15.3734 6.03193 16.5897 5.92609C17.8252 5.82378 18.7089 5.06762 18.8457 4.35692C18.983 3.618 18.4492 3.10644 18.0719 2.91475C17.6625 2.71052 17.3836 2.74698 17.397 2.73639C17.3697 2.73443 17.3452 2.74933 17.3423 2.77128C17.3394 2.79402 17.3586 2.81166 17.385 2.81479C17.385 2.81479 17.4431 2.82224 17.5588 2.83361C17.6639 2.85399 17.8276 2.8928 18.01 2.99198C18.3551 3.17504 18.8337 3.66935 18.6863 4.33262C18.5452 4.97706 17.7023 5.66385 16.5638 5.73166C15.4607 5.80928 14.0999 5.23578 13.5858 4.18914C13.0794 3.13937 13.7826 1.76737 15.119 1.0994C16.4462 0.416537 18.2927 0.216226 19.918 0.672905C20.3639 0.801089 20.7839 0.9818 21.1559 1.217C21.0119 1.3393 20.8766 1.46827 20.7585 1.60782C20.17 2.31029 19.9314 3.14015 19.9823 3.96884C20.0481 4.79204 20.3678 5.61485 20.9764 6.29928C21.0191 6.34749 21.0652 6.39297 21.1098 6.43961C20.6543 6.79202 20.1119 7.08053 19.5268 7.28124C18.6926 7.56897 17.7777 7.71361 16.8681 7.71165C16.4169 7.71322 15.9522 7.67873 15.5241 7.61561C15.0383 7.54427 14.6433 7.45137 14.2012 7.32749C12.4828 6.83749 10.9742 5.97745 9.6412 5.02567C8.302 4.09663 6.95512 2.99982 5.218 2.56274C4.31896 2.34518 3.43336 2.32714 2.58856 2.4863C1.75432 2.64937 0.969998 3.02961 0.496238 3.59526C0.0239182 4.14955 -0.0850417 4.86574 0.0594383 5.43727C0.205358 6.02096 0.535118 6.52115 0.959918 6.90649C1.81864 7.70068 2.96152 7.93039 3.81304 7.97508C4.68664 8.01545 5.35672 7.8955 5.79544 7.79437C6.23752 7.69127 6.46024 7.61248 6.46024 7.61248C6.48232 7.60425 6.49672 7.58112 6.49 7.56348C6.4804 7.5427 6.45496 7.53055 6.42904 7.538C6.42904 7.538 6.19864 7.59719 5.75752 7.66109C5.32024 7.71871 4.66072 7.79672 3.84904 7.69911C3.0556 7.59876 2.05672 7.32044 1.38184 6.6168C1.042 6.27301 0.795758 5.82653 0.713678 5.34868C0.641198 4.86338 0.753998 4.37769 1.12312 3.95825C1.85272 3.12839 3.53416 2.88966 4.91608 3.27735C6.37912 3.69366 7.61944 4.65915 8.9932 5.65052C10.3881 6.61915 12.0158 7.53839 13.9151 8.03231C15.7746 8.54309 17.986 8.55289 19.8412 7.85709C20.4897 7.62071 21.0892 7.29339 21.6009 6.88571C22.1121 7.29339 22.7121 7.62071 23.3601 7.85709C25.2153 8.55289 27.4266 8.54309 29.2842 8.03231C31.1836 7.53839 32.8113 6.61915 34.209 5.65052C35.5804 4.65915 36.8202 3.69326 38.2838 3.27735C39.6652 2.88966 41.3471 3.12839 42.0782 3.95825C42.4478 4.37769 42.5586 4.86338 42.4881 5.34868C42.405 5.82653 42.1569 6.27341 41.8185 6.6168C41.1446 7.32044 40.1442 7.59915 39.3527 7.69911C38.5377 7.79672 37.8806 7.71871 37.4399 7.66109C37.0012 7.59719 36.7703 7.538 36.7703 7.538C36.7478 7.53329 36.7199 7.5427 36.7113 7.5623C36.7022 7.5819 36.7146 7.60464 36.741 7.61287C36.741 7.61287 36.9647 7.69166 37.4044 7.79476C37.8431 7.89589 38.5132 8.01585 39.3873 7.97547C40.2378 7.93078 41.3802 7.70068 42.2404 6.90688C42.6638 6.52193 42.9954 6.02135 43.1404 5.43766C43.2854 4.86574 43.1754 4.14955 42.7012 3.59605ZM20.6476 3.93591C20.5756 3.21934 20.7964 2.47414 21.2457 1.91006C21.3522 1.77874 21.4722 1.65879 21.5999 1.54667C21.7276 1.65879 21.8476 1.77874 21.9546 1.91006C22.4049 2.47454 22.6228 3.21973 22.5532 3.93591C22.4817 4.65523 22.1822 5.37847 21.6436 5.95785C21.6297 5.97313 21.6138 5.98725 21.5999 6.00214C21.5855 5.98725 21.5697 5.97313 21.5558 5.95785C21.0182 5.37847 20.7196 4.65523 20.6476 3.93591Z" fill="#FF98B1"/>
</svg>
