<svg width="336" height="556" viewBox="0 0 336 556" fill="none" xmlns="http://www.w3.org/2000/svg">
<path d="M170.42 24.1948C170.42 24.1948 188.951 30.3886 190.638 41.3685C191.222 45.1659 187.017 44.9928 185.462 47.2509C184.32 48.9088 183.007 50.4786 182.443 52.8351C181.635 56.2134 181.254 60.3531 182.106 64.3324C182.817 67.657 183.772 72.2528 184.864 75.0178C186.254 78.5369 189.109 82.524 191.272 84.9892C193.838 87.914 197.737 90.5706 200.6 92.0782C203.874 93.8026 207.518 92.7259 210.673 92.5009C213.936 92.2681 216.466 89.7419 218.951 87.1672C221.877 84.1351 224.731 80.2326 225.758 74.7753C226.561 70.5113 225.823 65.226 224.976 60.3606C223.868 53.9932 221.826 47.6551 219.471 41.7112C217.143 35.8345 214.522 29.8288 211.098 25.2738C207.327 20.2559 202.783 16.9254 198.377 14.1853C194.074 11.5085 189.619 9.91633 185.295 9.15138C180.972 8.38643 176.732 8.72766 172.68 9.63872C167.95 10.7023 163.345 12.5034 159.203 15.412C155.033 18.3404 151.281 22.3716 147.964 27.02C144.891 31.3282 142.088 36.2191 140.061 41.9374C137.131 50.2032 135.461 59.7981 134.094 69.4342C133.087 76.5322 132.657 84.0262 132.475 91.5819C132.196 103.206 132.128 115.036 133.295 127.078C135.121 145.921 139.427 164.935 142.895 183.842C147.381 208.295 157.383 257.107 157.383 257.107L150.108 263.977L158.316 268.149C158.316 268.149 167.275 308.71 171.753 328.991C175.762 347.149 180.891 365.208 183.779 383.465C185.866 396.664 188.136 410.068 189.32 423.195C190.579 437.143 190.371 451.714 189.837 465.436C189.465 475.013 188.161 484.25 186.027 492.634C183.868 501.116 181.034 509.213 177.052 515.52C173.851 520.589 169.501 523.719 165.37 527.05C163.535 528.529 159.576 530.783 159.576 530.783C159.576 530.783 146.309 516.435 143.088 506.112C142.244 503.407 141.261 499.997 141.944 497.751C143.329 493.2 149.223 494.08 150.875 489.814C152.549 485.492 152.541 479.398 152.132 473.721C151.727 468.095 150.532 462.115 148.516 456.765C147.116 453.049 145.124 449.569 142.884 446.931C140.344 443.94 137.364 442.181 134.501 440.689C130.93 438.829 127.22 437.351 123.751 437.427C120.699 437.494 117.705 438.515 115.298 440.691C111.844 443.814 108.813 448.376 107.278 454.228C105.684 460.303 105.622 467.86 106.429 475.152C107.278 482.829 109.772 490.563 112.284 497.942C114.383 504.11 116.838 510.237 119.887 515.603C122.767 520.673 126.162 525.183 129.74 528.903C133.715 533.036 138.056 535.967 142.345 538.612C147.739 541.938 153.325 545.689 158.703 546.265C163.437 546.771 167.764 544.592 171.912 542.483C180.776 537.98 189.097 530.291 196.115 521.612C200.95 515.634 205.671 507.508 208.53 500.695C210.969 494.883 212.872 489.419 214.428 482.703C216.547 473.557 218.01 463.586 218.949 453.591C219.444 448.32 219.497 442.909 219.32 437.341C218.961 425.977 217.899 413.745 216.566 402.183C215.178 390.148 212.972 378.613 211.153 366.554C208.644 349.92 205.575 333.269 202.136 316.691C200.313 307.905 195.989 290.45 195.989 290.45L202.494 284.803L192.898 279.706C192.898 279.706 180.994 226.984 175.729 200.528C171.543 179.491 168.081 158.389 164.274 137.318C162.075 125.146 159.057 112.955 157.695 100.803C156.501 90.1555 156.085 79.5451 156.34 69.2912C156.546 60.9801 156.937 52.5563 158.669 45.2298C160.098 39.189 162.358 33.7773 165.185 29.3871C166.636 27.1338 170.42 24.1949 170.42 24.1949L170.42 24.1948Z" fill="#FF98B1" fill-opacity="0.2"/>
</svg>
