<svg width="25" height="24" viewBox="0 0 25 24" fill="none" xmlns="http://www.w3.org/2000/svg">
<path d="M12.445 5.84284C9.03769 5.84284 6.28784 8.5927 6.28784 12C6.28784 15.4073 9.03769 18.1572 12.445 18.1572C15.8523 18.1572 18.6022 15.4073 18.6022 12C18.6022 8.5927 15.8523 5.84284 12.445 5.84284ZM12.445 16.0017C10.2415 16.0017 8.44329 14.2035 8.44329 12C8.44329 9.79651 10.2415 7.9983 12.445 7.9983C14.6485 7.9983 16.4467 9.79651 16.4467 12C16.4467 14.2035 14.6485 16.0017 12.445 16.0017ZM18.8543 4.1557C18.0588 4.1557 17.4164 4.79813 17.4164 5.59367C17.4164 6.38921 18.0588 7.03164 18.8543 7.03164C19.6499 7.03164 20.2923 6.39221 20.2923 5.59367C20.2925 5.40477 20.2555 5.21767 20.1833 5.0431C20.1111 4.86853 20.0052 4.70992 19.8717 4.57634C19.7381 4.44277 19.5795 4.33686 19.4049 4.26468C19.2303 4.1925 19.0432 4.15546 18.8543 4.1557ZM24.4471 12C24.4471 10.3429 24.4621 8.70077 24.3691 7.04665C24.276 5.12536 23.8377 3.4202 22.4327 2.01525C21.0248 0.607302 19.3226 0.172008 17.4013 0.0789456C15.7442 -0.0141173 14.1021 0.000892936 12.448 0.000892936C10.7909 0.000892936 9.14877 -0.0141173 7.49465 0.0789456C5.57335 0.172008 3.8682 0.610305 2.46325 2.01525C1.0553 3.42321 0.620007 5.12536 0.526944 7.04665C0.433881 8.70377 0.448891 10.3459 0.448891 12C0.448891 13.6541 0.433881 15.2992 0.526944 16.9533C0.620007 18.8746 1.0583 20.5798 2.46325 21.9847C3.8712 23.3927 5.57335 23.828 7.49465 23.9211C9.15177 24.0141 10.7939 23.9991 12.448 23.9991C14.1051 23.9991 15.7472 24.0141 17.4013 23.9211C19.3226 23.828 21.0278 23.3897 22.4327 21.9847C23.8407 20.5768 24.276 18.8746 24.3691 16.9533C24.4651 15.2992 24.4471 13.6571 24.4471 12ZM21.8053 19.0788C21.5862 19.6252 21.322 20.0334 20.8987 20.4537C20.4754 20.877 20.0702 21.1412 19.5238 21.3603C17.9447 21.9877 14.1952 21.8467 12.445 21.8467C10.6948 21.8467 6.94228 21.9877 5.36321 21.3633C4.81684 21.1442 4.40857 20.88 3.98828 20.4567C3.565 20.0334 3.30082 19.6282 3.08167 19.0818C2.45725 17.4997 2.59834 13.7502 2.59834 12C2.59834 10.2498 2.45725 6.49728 3.08167 4.91822C3.30082 4.37185 3.565 3.96357 3.98828 3.54329C4.41157 3.123 4.81684 2.85582 5.36321 2.63667C6.94228 2.01225 10.6948 2.15335 12.445 2.15335C14.1952 2.15335 17.9477 2.01225 19.5268 2.63667C20.0732 2.85582 20.4814 3.12 20.9017 3.54329C21.325 3.96657 21.5892 4.37185 21.8083 4.91822C22.4327 6.49728 22.2917 10.2498 22.2917 12C22.2917 13.7502 22.4327 17.4997 21.8053 19.0788Z" fill="#FAFAFA" fill-opacity="0.9"/>
</svg>
