<svg width="85" height="114" viewBox="0 0 85 114" fill="none" xmlns="http://www.w3.org/2000/svg">
<path d="M36.0488 70.5097C35.674 70.5097 35.3554 70.6221 35.093 70.847C34.4559 68.4482 33.9311 64.9438 33.5188 60.3336C33.1066 55.7235 32.6006 52.2378 32.0009 49.8765C30.9514 49.8015 28.9087 49.408 25.8727 48.6958C22.8743 47.9462 20.7191 47.5714 19.4073 47.5714C18.4703 48.6209 16.2214 51.863 12.6607 57.2977C11.6113 58.8719 10.3182 60.2961 8.78146 61.5705C7.28223 62.8074 5.80173 63.4258 4.33998 63.4258C4.3025 63.4258 4.26502 63.4258 4.22754 63.4258L1.52891 63.3696C1.1541 63.1447 0.9667 62.8823 0.9667 62.5825C0.9667 62.2826 1.1541 62.0203 1.52891 61.7954C1.90372 61.8703 2.46594 61.9078 3.21555 61.9078C4.00265 61.9078 5.10834 61.5143 6.53261 60.7272C7.99437 59.9026 9.47486 58.5533 10.9741 56.6792C13.4104 53.6808 15.6779 50.2888 17.7769 46.5032C17.627 46.4657 17.2709 46.2408 16.7087 45.8285C16.1465 45.3788 15.7904 45.0977 15.6405 44.9852C15.528 44.8353 15.1345 44.4417 14.4598 43.8046C13.7852 43.1674 13.1855 42.5864 12.6607 42.0617C11.2365 40.7124 10.4494 39.7004 10.2994 39.0257C10.2994 38.5385 10.4494 38.2386 10.7492 38.1262C11.0865 38.0138 11.4426 37.9575 11.8174 37.9575H12.4921C13.654 37.9575 15.3406 38.3136 17.552 39.0257C19.7634 39.7379 21.4313 40.094 22.5557 40.094C23.4552 39.007 24.7483 36.3459 26.435 32.1105C28.1591 27.8377 29.4334 25.1391 30.258 24.0147C31.1576 22.403 31.776 21.5971 32.1133 21.5971C32.3007 21.5971 32.3944 21.8595 32.3944 22.3842V23.0027L33.6875 46.5032H34.2497C36.611 45.3788 38.0915 44.8165 38.6912 44.8165C39.2909 44.8165 39.5908 44.9665 39.5908 45.2663C39.5908 45.7161 38.9911 46.3345 37.7917 47.1216C36.5923 47.8712 35.4116 48.3585 34.2497 48.5834C34.2122 48.9582 34.1935 49.8015 34.1935 51.1133C34.1935 52.3877 34.5121 55.6673 35.1493 60.9521C35.7864 66.2369 36.105 69.1416 36.105 69.6664C36.1425 70.2286 36.1238 70.5097 36.0488 70.5097ZM20.9253 45.9972C21.9373 46.2596 23.3428 46.5219 25.1419 46.7843C26.941 47.0467 28.0841 47.2528 28.5714 47.4027C27.1471 45.4162 25.2918 43.8795 23.0055 42.7926C22.968 42.8675 22.7806 43.1486 22.4432 43.6359C21.7311 44.5354 21.2251 45.3225 20.9253 45.9972ZM24.411 41.1622L31.6635 47.0654C31.701 46.3158 31.7198 45.1726 31.7198 43.6359C31.7198 42.0617 31.6448 39.3443 31.4949 35.4838C31.345 31.6233 31.1576 28.6435 30.9327 26.5446L24.411 41.1622ZM14.5723 39.588C14.3474 39.5505 14.1412 39.5317 13.9538 39.5317C13.3916 39.5317 13.1105 39.7191 13.1105 40.094C13.1105 40.9185 13.9538 41.9493 15.6405 43.1861C17.3646 44.423 18.6202 45.0414 19.4073 45.0414C19.5947 45.0414 19.7634 45.0039 19.9133 44.929C20.1382 44.6666 20.3631 44.2169 20.5879 43.5797C20.8128 42.9425 21.1127 42.3241 21.4875 41.7244C21.1876 41.5744 18.8826 40.8623 14.5723 39.588Z" fill="#FF98B1"/>
<path d="M53.8197 63.9816L53.7635 66.4554V67.1863C52.639 74.9823 51.9269 79.405 51.6271 80.4545C52.3767 79.1427 53.6698 76.7439 55.5063 73.2582C57.3429 69.7724 58.8421 67.0176 60.004 64.9936C61.1659 62.9322 62.5902 60.927 64.2769 58.9779C65.9635 56.9915 67.5002 55.867 68.887 55.6047C70.5362 55.6047 71.3607 58.1159 71.3607 63.1383V64.5439C71.3233 67.205 70.8922 71.178 70.0676 76.4628C68.8308 84.7086 68.2123 89.8997 68.2123 92.0361C68.2123 94.135 68.3248 96.1028 68.5497 97.9393C68.812 99.7759 69.393 101.781 70.2925 103.955C72.1666 108.453 76.2333 111.226 82.4926 112.276C83.5045 111.901 84.1042 111.714 84.2916 111.714C84.479 111.714 84.5727 111.732 84.5727 111.77C84.5727 112.107 83.9918 112.482 82.8299 112.894C81.7055 113.306 80.9558 113.513 80.581 113.513C80.2437 113.513 79.9813 113.475 79.7939 113.4C76.1208 113.4 73.1973 112.07 71.0234 109.408C69.1119 107.01 67.7813 104.086 67.0317 100.638C66.9193 99.1762 66.863 97.0023 66.863 94.1163C66.863 91.1928 67.2378 86.2078 67.9875 79.1614C68.7371 72.115 69.1494 67.2425 69.2243 64.5439L69.1681 60.2148C69.0557 59.1279 68.7933 58.5844 68.381 58.5844C65.0077 61.2081 61.9718 64.9749 59.2732 69.8849C57.8114 72.546 56.7807 74.4763 56.181 75.6757C55.6188 76.8751 54.9066 78.4118 54.0446 80.2858C52.8077 82.9845 51.4771 86.6014 50.0529 91.1365C49.753 91.4364 49.4344 91.5863 49.0971 91.5863C48.7598 91.5863 48.5349 91.4364 48.4224 91.1365C48.4224 88.9252 49.678 80.417 52.1893 65.6121C51.9644 64.4876 51.3834 64.3565 50.4464 65.2185C50.184 65.4434 48.31 67.7672 44.8243 72.19C41.3386 76.5752 39.1834 79.3301 38.3588 80.4545C38.2089 80.8668 37.7591 82.366 37.0095 84.9522C36.2974 87.5009 35.8663 89.0001 35.7164 89.4499C35.1167 91.3239 34.1235 92.9731 32.7367 94.3974C31.3874 95.7842 29.8881 96.4776 28.239 96.4776C26.9272 96.4776 26.2338 96.2527 26.1588 95.8029C26.1213 95.578 26.1026 95.2407 26.1026 94.7909C26.1026 93.5915 26.4586 92.5233 27.1708 91.5863C33.58 83.8278 37.122 78.1682 37.7966 74.6075C38.0965 74.3076 38.2464 72.4523 38.2464 69.0416C38.2464 65.6308 38.1152 63.9254 37.8528 63.9254C37.8153 63.9254 37.7966 63.9442 37.7966 63.9816L27.4519 68.2545C27.227 68.2545 27.0209 68.1795 26.8334 68.0296C26.6835 67.8422 26.6086 67.636 26.6086 67.4111C26.6086 66.9989 27.2457 66.6428 28.5201 66.3429L29.3072 66.1181C29.682 65.9307 30.5066 65.4809 31.7809 64.7687C34.6295 63.1945 36.6347 62.37 37.7966 62.295C38.5462 62.295 39.0335 62.4824 39.2584 62.8572C39.4832 63.1945 39.6332 63.4757 39.7081 63.7005C39.8206 63.8879 39.8955 64.1878 39.933 64.6001C39.9705 64.9749 39.9892 65.2747 39.9892 65.4996C40.0267 65.687 40.0267 66.0056 39.9892 66.4554C39.9892 66.9052 39.9892 67.3924 39.9892 67.9171C39.9892 68.4044 39.8955 69.6787 39.7081 71.7402C39.5207 73.7642 39.427 75.4321 39.427 76.7439C45.7988 68.3856 49.6406 63.6068 50.9524 62.4074C51.5146 61.8827 51.9644 61.6203 52.3017 61.6203C52.6765 61.6203 52.9389 61.7515 53.0888 62.0139C53.2387 62.2763 53.4824 62.9322 53.8197 63.9816ZM28.1828 94.8472C29.1947 94.8472 30.2255 94.3224 31.2749 93.273C32.3244 92.186 33.0928 91.0991 33.58 90.0121L34.592 87.4822C35.2292 85.758 35.604 84.6524 35.7164 84.1651V83.884C35.6415 83.9964 35.2854 84.4275 34.6482 85.1771C34.011 85.8892 33.4676 86.5077 33.0178 87.0324C32.6055 87.5196 32.062 88.1943 31.3874 89.0564C30.7127 89.9184 30.1692 90.668 29.757 91.3052C28.7075 92.8794 28.1828 94.0601 28.1828 94.8472Z" fill="#FF98B1"/>
</svg>
