<svg width="101" height="126" viewBox="0 0 101 126" fill="none" xmlns="http://www.w3.org/2000/svg">
<g filter="url(#filter0_d)">
<path d="M39.9126 70.5097C39.5378 70.5097 39.2192 70.6221 38.9568 70.847C38.3196 68.4482 37.7949 64.9438 37.3826 60.3336C36.9703 55.7235 36.4643 52.2378 35.8646 49.8765C34.8152 49.8015 32.7725 49.408 29.7365 48.6958C26.738 47.9462 24.5829 47.5714 23.2711 47.5714C22.334 48.6209 20.0852 51.863 16.5245 57.2977C15.475 58.8719 14.182 60.2961 12.6452 61.5705C11.146 62.8074 9.6655 63.4258 8.20375 63.4258C8.16627 63.4258 8.12879 63.4258 8.09131 63.4258L5.39268 63.3696C5.01787 63.1447 4.83047 62.8823 4.83047 62.5825C4.83047 62.2826 5.01787 62.0203 5.39268 61.7954C5.76749 61.8703 6.32971 61.9078 7.07932 61.9078C7.86642 61.9078 8.97211 61.5143 10.3964 60.7272C11.8581 59.9026 13.3386 58.5533 14.8379 56.6792C17.2741 53.6808 19.5417 50.2888 21.6406 46.5032C21.4907 46.4657 21.1347 46.2408 20.5724 45.8285C20.0102 45.3788 19.6542 45.0977 19.5042 44.9852C19.3918 44.8353 18.9982 44.4417 18.3236 43.8046C17.6489 43.1674 17.0492 42.5864 16.5245 42.0617C15.1002 40.7124 14.3131 39.7004 14.1632 39.0257C14.1632 38.5385 14.3131 38.2386 14.613 38.1262C14.9503 38.0138 15.3064 37.9575 15.6812 37.9575H16.3558C17.5177 37.9575 19.2044 38.3136 21.4158 39.0257C23.6271 39.7379 25.295 40.094 26.4195 40.094C27.319 39.007 28.6121 36.3459 30.2987 32.1105C32.0229 27.8377 33.2972 25.1391 34.1218 24.0147C35.0213 22.403 35.6398 21.5971 35.9771 21.5971C36.1645 21.5971 36.2582 21.8595 36.2582 22.3842V23.0027L37.5513 46.5032H38.1135C40.4748 45.3788 41.9553 44.8165 42.555 44.8165C43.1547 44.8165 43.4545 44.9665 43.4545 45.2663C43.4545 45.7161 42.8548 46.3345 41.6554 47.1216C40.456 47.8712 39.2754 48.3585 38.1135 48.5834C38.076 48.9582 38.0573 49.8015 38.0573 51.1133C38.0573 52.3877 38.3759 55.6673 39.013 60.9521C39.6502 66.2369 39.9688 69.1416 39.9688 69.6664C40.0063 70.2286 39.9875 70.5097 39.9126 70.5097ZM24.789 45.9972C25.801 46.2596 27.2066 46.5219 29.0056 46.7843C30.8047 47.0467 31.9479 47.2528 32.4351 47.4027C31.0109 45.4162 29.1556 43.8795 26.8692 42.7926C26.8317 42.8675 26.6443 43.1486 26.307 43.6359C25.5949 44.5354 25.0889 45.3225 24.789 45.9972ZM28.2748 41.1622L35.5273 47.0654C35.5648 46.3158 35.5835 45.1726 35.5835 43.6359C35.5835 42.0617 35.5086 39.3443 35.3586 35.4838C35.2087 31.6233 35.0213 28.6435 34.7964 26.5446L28.2748 41.1622ZM18.436 39.588C18.2111 39.5505 18.005 39.5317 17.8176 39.5317C17.2554 39.5317 16.9743 39.7191 16.9743 40.094C16.9743 40.9185 17.8176 41.9493 19.5042 43.1861C21.2284 44.423 22.484 45.0414 23.2711 45.0414C23.4585 45.0414 23.6271 45.0039 23.7771 44.929C24.0019 44.6666 24.2268 44.2169 24.4517 43.5797C24.6766 42.9425 24.9764 42.3241 25.3513 41.7244C25.0514 41.5744 22.7463 40.8623 18.436 39.588Z" fill="#62D4ED"/>
<path d="M57.6835 63.9816L57.6272 66.4554V67.1863C56.5028 74.9823 55.7907 79.405 55.4908 80.4545C56.2404 79.1427 57.5335 76.7439 59.3701 73.2582C61.2067 69.7724 62.7059 67.0176 63.8678 64.9936C65.0297 62.9322 66.454 60.927 68.1406 58.9779C69.8273 56.9915 71.364 55.867 72.7508 55.6047C74.3999 55.6047 75.2245 58.1159 75.2245 63.1383V64.5439C75.187 67.205 74.756 71.178 73.9314 76.4628C72.6945 84.7086 72.0761 89.8997 72.0761 92.0361C72.0761 94.135 72.1886 96.1028 72.4134 97.9393C72.6758 99.7759 73.2568 101.781 74.1563 103.955C76.0303 108.453 80.097 111.226 86.3563 112.276C87.3683 111.901 87.968 111.714 88.1554 111.714C88.3428 111.714 88.4365 111.732 88.4365 111.77C88.4365 112.107 87.8556 112.482 86.6937 112.894C85.5692 113.306 84.8196 113.513 84.4448 113.513C84.1075 113.513 83.8451 113.475 83.6577 113.4C79.9846 113.4 77.0611 112.07 74.8872 109.408C72.9757 107.01 71.6451 104.086 70.8955 100.638C70.783 99.1762 70.7268 97.0023 70.7268 94.1163C70.7268 91.1928 71.1016 86.2078 71.8512 79.1614C72.6008 72.115 73.0131 67.2425 73.0881 64.5439L73.0319 60.2148C72.9194 59.1279 72.6571 58.5844 72.2448 58.5844C68.8715 61.2081 65.8355 64.9749 63.1369 69.8849C61.6752 72.546 60.6444 74.4763 60.0447 75.6757C59.4825 76.8751 58.7704 78.4118 57.9083 80.2858C56.6715 82.9845 55.3409 86.6014 53.9166 91.1365C53.6168 91.4364 53.2982 91.5863 52.9609 91.5863C52.6235 91.5863 52.3986 91.4364 52.2862 91.1365C52.2862 88.9252 53.5418 80.417 56.053 65.6121C55.8282 64.4876 55.2472 64.3565 54.3102 65.2185C54.0478 65.4434 52.1738 67.7672 48.688 72.19C45.2023 76.5752 43.0472 79.3301 42.2226 80.4545C42.0727 80.8668 41.6229 82.366 40.8733 84.9522C40.1611 87.5009 39.7301 89.0001 39.5802 89.4499C38.9805 91.3239 37.9872 92.9731 36.6005 94.3974C35.2511 95.7842 33.7519 96.4776 32.1028 96.4776C30.7909 96.4776 30.0975 96.2527 30.0226 95.8029C29.9851 95.578 29.9663 95.2407 29.9663 94.7909C29.9663 93.5915 30.3224 92.5233 31.0345 91.5863C37.4438 83.8278 40.9857 78.1682 41.6604 74.6075C41.9602 74.3076 42.1101 72.4523 42.1101 69.0416C42.1101 65.6308 41.979 63.9254 41.7166 63.9254C41.6791 63.9254 41.6604 63.9442 41.6604 63.9816L31.3157 68.2545C31.0908 68.2545 30.8846 68.1795 30.6972 68.0296C30.5473 67.8422 30.4723 67.636 30.4723 67.4111C30.4723 66.9989 31.1095 66.6428 32.3839 66.3429L33.171 66.1181C33.5458 65.9307 34.3703 65.4809 35.6447 64.7687C38.4932 63.1945 40.4985 62.37 41.6604 62.295C42.41 62.295 42.8972 62.4824 43.1221 62.8572C43.347 63.1945 43.4969 63.4757 43.5719 63.7005C43.6843 63.8879 43.7593 64.1878 43.7968 64.6001C43.8343 64.9749 43.853 65.2747 43.853 65.4996C43.8905 65.687 43.8905 66.0056 43.853 66.4554C43.853 66.9052 43.853 67.3924 43.853 67.9171C43.853 68.4044 43.7593 69.6787 43.5719 71.7402C43.3845 73.7642 43.2908 75.4321 43.2908 76.7439C49.6625 68.3856 53.5043 63.6068 54.8162 62.4074C55.3784 61.8827 55.8282 61.6203 56.1655 61.6203C56.5403 61.6203 56.8027 61.7515 56.9526 62.0139C57.1025 62.2763 57.3461 62.9322 57.6835 63.9816ZM32.0465 94.8472C33.0585 94.8472 34.0892 94.3224 35.1387 93.273C36.1882 92.186 36.9565 91.0991 37.4438 90.0121L38.4558 87.4822C39.0929 85.758 39.4677 84.6524 39.5802 84.1651V83.884C39.5052 83.9964 39.1492 84.4275 38.512 85.1771C37.8748 85.8892 37.3313 86.5077 36.8816 87.0324C36.4693 87.5196 35.9258 88.1943 35.2511 89.0564C34.5765 89.9184 34.033 90.668 33.6207 91.3052C32.5713 92.8794 32.0465 94.0601 32.0465 94.8472Z" fill="#62D4ED"/>
</g>
<defs>
<filter id="filter0_d" x="0.960272" y="17.7268" width="99.0871" height="107.397" filterUnits="userSpaceOnUse" color-interpolation-filters="sRGB">
<feFlood flood-opacity="0" result="BackgroundImageFix"/>
<feColorMatrix in="SourceAlpha" type="matrix" values="0 0 0 0 0 0 0 0 0 0 0 0 0 0 0 0 0 0 127 0"/>
<feOffset dx="3.87029" dy="3.87029"/>
<feGaussianBlur stdDeviation="3.87029"/>
<feColorMatrix type="matrix" values="0 0 0 0 0 0 0 0 0 0 0 0 0 0 0 0 0 0 0.45 0"/>
<feBlend mode="normal" in2="BackgroundImageFix" result="effect1_dropShadow"/>
<feBlend mode="normal" in="SourceGraphic" in2="effect1_dropShadow" result="shape"/>
</filter>
</defs>
</svg>
