<svg width="91" height="23" viewBox="0 0 91 23" fill="none" xmlns="http://www.w3.org/2000/svg">
<path d="M90.1968 8.17678C90.2944 8.07915 90.2944 7.92085 90.1968 7.82322L88.6058 6.23223C88.5082 6.1346 88.3499 6.1346 88.2522 6.23223C88.1546 6.32986 88.1546 6.48816 88.2522 6.58579L89.6664 8L88.2522 9.41421C88.1546 9.51184 88.1546 9.67014 88.2522 9.76777C88.3499 9.8654 88.5082 9.8654 88.6058 9.76777L90.1968 8.17678ZM71 8.25H90.02V7.75H71V8.25Z" fill="#FF98B1"/>
<line y1="15.75" x2="90" y2="15.75" stroke="#FF98B1" stroke-width="0.5"/>
<line y1="22.75" x2="25" y2="22.75" stroke="#FF98B1" stroke-width="0.5"/>
<path d="M3.912 6.024C4.296 6 4.488 6.164 4.488 6.516C4.488 6.692 4.444 6.824 4.356 6.912C4.268 7 4.116 7.052 3.9 7.068L3.54 7.104C3.036 7.152 2.66 7.328 2.412 7.632C2.172 7.936 2.052 8.304 2.052 8.736V11.484C2.052 11.676 1.996 11.82 1.884 11.916C1.772 12.012 1.628 12.06 1.452 12.06C1.276 12.06 1.128 12.012 1.008 11.916C0.896 11.82 0.84 11.676 0.84 11.484V6.6C0.84 6.416 0.896 6.276 1.008 6.18C1.128 6.076 1.276 6.024 1.452 6.024C1.612 6.024 1.744 6.076 1.848 6.18C1.96 6.276 2.016 6.412 2.016 6.588V7.164C2.176 6.812 2.408 6.544 2.712 6.36C3.016 6.176 3.36 6.068 3.744 6.036L3.912 6.024ZM10.9013 10.524C11.0133 10.524 11.1053 10.568 11.1773 10.656C11.2493 10.744 11.2853 10.856 11.2853 10.992C11.2853 11.224 11.1413 11.42 10.8533 11.58C10.5733 11.74 10.2653 11.864 9.92934 11.952C9.60134 12.04 9.28534 12.084 8.98134 12.084C8.05334 12.084 7.32134 11.816 6.78534 11.28C6.24934 10.736 5.98134 9.996 5.98134 9.06C5.98134 8.46 6.09734 7.928 6.32934 7.464C6.56934 7 6.90134 6.64 7.32534 6.384C7.75734 6.128 8.24534 6 8.78934 6C9.57334 6 10.1933 6.252 10.6493 6.756C11.1053 7.26 11.3333 7.94 11.3333 8.796C11.3333 9.116 11.1893 9.276 10.9013 9.276H7.19334C7.27334 10.516 7.86934 11.136 8.98134 11.136C9.27734 11.136 9.53334 11.096 9.74934 11.016C9.96534 10.936 10.1933 10.832 10.4333 10.704C10.4573 10.688 10.5213 10.656 10.6253 10.608C10.7373 10.552 10.8293 10.524 10.9013 10.524ZM8.81334 6.888C8.34934 6.888 7.97734 7.036 7.69734 7.332C7.41734 7.628 7.24934 8.044 7.19334 8.58H10.2893C10.2653 8.036 10.1253 7.62 9.86934 7.332C9.62134 7.036 9.26934 6.888 8.81334 6.888ZM16.3289 6C17.1049 6 17.6809 6.196 18.0569 6.588C18.4409 6.98 18.6329 7.576 18.6329 8.376V11.484C18.6329 11.668 18.5809 11.812 18.4769 11.916C18.3729 12.012 18.2289 12.06 18.0449 12.06C17.8689 12.06 17.7289 12.008 17.6249 11.904C17.5209 11.8 17.4689 11.66 17.4689 11.484V11.04C17.3169 11.376 17.0889 11.636 16.7849 11.82C16.4889 11.996 16.1409 12.084 15.7409 12.084C15.3569 12.084 15.0049 12.008 14.6849 11.856C14.3649 11.696 14.1129 11.476 13.9289 11.196C13.7529 10.916 13.6649 10.604 13.6649 10.26C13.6649 9.836 13.7729 9.504 13.9889 9.264C14.2129 9.016 14.5769 8.84 15.0809 8.736C15.5929 8.632 16.2929 8.58 17.1809 8.58H17.4569V8.232C17.4569 7.784 17.3649 7.46 17.1809 7.26C16.9969 7.06 16.7009 6.96 16.2929 6.96C16.0129 6.96 15.7489 6.996 15.5009 7.068C15.2529 7.14 14.9809 7.244 14.6849 7.38C14.4689 7.5 14.3169 7.56 14.2289 7.56C14.1089 7.56 14.0089 7.516 13.9289 7.428C13.8569 7.34 13.8209 7.228 13.8209 7.092C13.8209 6.972 13.8529 6.868 13.9169 6.78C13.9889 6.684 14.1009 6.592 14.2529 6.504C14.5329 6.352 14.8609 6.232 15.2369 6.144C15.6129 6.048 15.9769 6 16.3289 6ZM15.9569 11.184C16.3969 11.184 16.7569 11.036 17.0369 10.74C17.3169 10.436 17.4569 10.048 17.4569 9.576V9.264H17.2409C16.6169 9.264 16.1369 9.292 15.8009 9.348C15.4649 9.404 15.2249 9.5 15.0809 9.636C14.9369 9.764 14.8649 9.952 14.8649 10.2C14.8649 10.488 14.9689 10.724 15.1769 10.908C15.3849 11.092 15.6449 11.184 15.9569 11.184ZM26.2788 3.48C26.4628 3.48 26.6108 3.532 26.7228 3.636C26.8348 3.74 26.8908 3.88 26.8908 4.056V11.472C26.8908 11.656 26.8348 11.8 26.7228 11.904C26.6188 12.008 26.4748 12.06 26.2908 12.06C26.1068 12.06 25.9588 12.008 25.8468 11.904C25.7428 11.8 25.6908 11.656 25.6908 11.472V10.992C25.5148 11.344 25.2588 11.616 24.9228 11.808C24.5868 11.992 24.1988 12.084 23.7588 12.084C23.2548 12.084 22.8028 11.956 22.4028 11.7C22.0108 11.444 21.7028 11.084 21.4788 10.62C21.2628 10.156 21.1548 9.624 21.1548 9.024C21.1548 8.416 21.2628 7.884 21.4788 7.428C21.7028 6.972 22.0108 6.62 22.4028 6.372C22.7948 6.124 23.2468 6 23.7588 6C24.1988 6 24.5828 6.096 24.9108 6.288C25.2468 6.472 25.5028 6.736 25.6788 7.08V4.032C25.6788 3.864 25.7308 3.732 25.8348 3.636C25.9468 3.532 26.0948 3.48 26.2788 3.48ZM24.0468 11.124C24.5668 11.124 24.9708 10.944 25.2588 10.584C25.5468 10.224 25.6908 9.712 25.6908 9.048C25.6908 8.384 25.5468 7.872 25.2588 7.512C24.9788 7.152 24.5748 6.972 24.0468 6.972C23.5188 6.972 23.1068 7.152 22.8108 7.512C22.5228 7.864 22.3788 8.368 22.3788 9.024C22.3788 9.68 22.5268 10.196 22.8228 10.572C23.1188 10.94 23.5268 11.124 24.0468 11.124ZM40.8647 6C42.1767 6 42.8327 6.788 42.8327 8.364V11.484C42.8327 11.668 42.7767 11.812 42.6647 11.916C42.5527 12.012 42.4047 12.06 42.2207 12.06C42.0447 12.06 41.9007 12.012 41.7887 11.916C41.6767 11.812 41.6207 11.668 41.6207 11.484V8.376C41.6207 7.888 41.5327 7.536 41.3567 7.32C41.1807 7.096 40.9047 6.984 40.5287 6.984C40.0887 6.984 39.7407 7.136 39.4847 7.44C39.2287 7.736 39.1007 8.144 39.1007 8.664V11.484C39.1007 11.668 39.0447 11.812 38.9327 11.916C38.8207 12.012 38.6727 12.06 38.4887 12.06C38.3127 12.06 38.1687 12.012 38.0567 11.916C37.9447 11.812 37.8887 11.668 37.8887 11.484V8.376C37.8887 7.888 37.8007 7.536 37.6247 7.32C37.4487 7.096 37.1727 6.984 36.7967 6.984C36.3567 6.984 36.0047 7.136 35.7407 7.44C35.4847 7.736 35.3567 8.144 35.3567 8.664V11.484C35.3567 11.668 35.3007 11.812 35.1887 11.916C35.0767 12.012 34.9327 12.06 34.7567 12.06C34.5807 12.06 34.4327 12.012 34.3127 11.916C34.2007 11.812 34.1447 11.668 34.1447 11.484V6.6C34.1447 6.424 34.2047 6.284 34.3247 6.18C34.4447 6.076 34.5887 6.024 34.7567 6.024C34.9247 6.024 35.0607 6.076 35.1647 6.18C35.2767 6.276 35.3327 6.412 35.3327 6.588V7.032C35.5087 6.696 35.7527 6.44 36.0647 6.264C36.3767 6.088 36.7367 6 37.1447 6C37.5927 6 37.9607 6.092 38.2487 6.276C38.5447 6.46 38.7647 6.744 38.9087 7.128C39.0847 6.784 39.3447 6.512 39.6887 6.312C40.0327 6.104 40.4247 6 40.8647 6ZM48.2363 12.084C47.6603 12.084 47.1523 11.96 46.7123 11.712C46.2803 11.464 45.9443 11.112 45.7043 10.656C45.4723 10.192 45.3563 9.656 45.3563 9.048C45.3563 8.432 45.4723 7.896 45.7043 7.44C45.9443 6.976 46.2803 6.62 46.7123 6.372C47.1523 6.124 47.6603 6 48.2363 6C48.8123 6 49.3163 6.124 49.7483 6.372C50.1883 6.62 50.5243 6.976 50.7563 7.44C50.9963 7.896 51.1163 8.432 51.1163 9.048C51.1163 9.656 50.9963 10.192 50.7563 10.656C50.5243 11.112 50.1883 11.464 49.7483 11.712C49.3163 11.96 48.8123 12.084 48.2363 12.084ZM48.2363 11.124C48.7723 11.124 49.1803 10.948 49.4603 10.596C49.7483 10.244 49.8923 9.728 49.8923 9.048C49.8923 8.376 49.7483 7.864 49.4603 7.512C49.1723 7.152 48.7643 6.972 48.2363 6.972C47.7083 6.972 47.3003 7.152 47.0123 7.512C46.7243 7.864 46.5803 8.376 46.5803 9.048C46.5803 9.728 46.7203 10.244 47.0003 10.596C47.2883 10.948 47.7003 11.124 48.2363 11.124ZM56.7378 6.024C57.1218 6 57.3138 6.164 57.3138 6.516C57.3138 6.692 57.2698 6.824 57.1818 6.912C57.0938 7 56.9418 7.052 56.7258 7.068L56.3658 7.104C55.8618 7.152 55.4858 7.328 55.2378 7.632C54.9978 7.936 54.8778 8.304 54.8778 8.736V11.484C54.8778 11.676 54.8218 11.82 54.7098 11.916C54.5978 12.012 54.4538 12.06 54.2778 12.06C54.1018 12.06 53.9538 12.012 53.8338 11.916C53.7218 11.82 53.6658 11.676 53.6658 11.484V6.6C53.6658 6.416 53.7218 6.276 53.8338 6.18C53.9538 6.076 54.1018 6.024 54.2778 6.024C54.4378 6.024 54.5698 6.076 54.6738 6.18C54.7858 6.276 54.8418 6.412 54.8418 6.588V7.164C55.0018 6.812 55.2338 6.544 55.5378 6.36C55.8418 6.176 56.1858 6.068 56.5698 6.036L56.7378 6.024ZM63.7271 10.524C63.8391 10.524 63.9311 10.568 64.0031 10.656C64.0751 10.744 64.1111 10.856 64.1111 10.992C64.1111 11.224 63.9671 11.42 63.6791 11.58C63.3991 11.74 63.0911 11.864 62.7551 11.952C62.4271 12.04 62.1111 12.084 61.8071 12.084C60.8791 12.084 60.1471 11.816 59.6111 11.28C59.0751 10.736 58.8071 9.996 58.8071 9.06C58.8071 8.46 58.9231 7.928 59.1551 7.464C59.3951 7 59.7271 6.64 60.1511 6.384C60.5831 6.128 61.0711 6 61.6151 6C62.3991 6 63.0191 6.252 63.4751 6.756C63.9311 7.26 64.1591 7.94 64.1591 8.796C64.1591 9.116 64.0151 9.276 63.7271 9.276H60.0191C60.0991 10.516 60.6951 11.136 61.8071 11.136C62.1031 11.136 62.3591 11.096 62.5751 11.016C62.7911 10.936 63.0191 10.832 63.2591 10.704C63.2831 10.688 63.3471 10.656 63.4511 10.608C63.5631 10.552 63.6551 10.524 63.7271 10.524ZM61.6391 6.888C61.1751 6.888 60.8031 7.036 60.5231 7.332C60.2431 7.628 60.0751 8.044 60.0191 8.58H63.1151C63.0911 8.036 62.9511 7.62 62.6951 7.332C62.4471 7.036 62.0951 6.888 61.6391 6.888Z" fill="#FF98B1"/>
</svg>
