<svg width="25" height="13" viewBox="0 0 25 13" fill="none" xmlns="http://www.w3.org/2000/svg">
<path d="M24.4485 8.90204C24.4485 9.93734 24.0799 10.8197 23.3426 11.5491C22.6053 12.2785 21.7191 12.6432 20.6838 12.6432H19.2014C18.9818 12.6432 18.8014 12.5726 18.6603 12.4315C18.5191 12.2903 18.4485 12.1099 18.4485 11.8903C18.4485 11.8432 18.4524 11.8001 18.4603 11.7609C18.4681 11.7217 18.4799 11.6824 18.4955 11.6432C18.5112 11.604 18.5308 11.5648 18.5544 11.5256C18.5779 11.4864 18.6014 11.4511 18.625 11.4197C18.6485 11.3883 18.6759 11.3569 18.7073 11.3256C18.7387 11.2942 18.774 11.2707 18.8132 11.255L18.9308 11.2079L19.0603 11.1726L19.2014 11.1609H20.6838C21.0916 11.1609 21.4681 11.0589 21.8132 10.855C22.1583 10.6511 22.4328 10.3766 22.6367 10.0315C22.8406 9.68636 22.9426 9.30989 22.9426 8.90204C22.9426 8.65106 22.9034 8.41185 22.825 8.1844C22.7465 7.95694 22.6406 7.75302 22.5073 7.57263C22.374 7.39224 22.2132 7.23145 22.025 7.09028C21.8367 6.9491 21.6289 6.8393 21.4014 6.76087C21.174 6.68243 20.9348 6.64322 20.6838 6.64322C20.3701 6.64322 20.0681 6.58047 19.7779 6.45498C19.4877 6.32949 19.2406 6.15694 19.0367 5.93734C18.8328 5.71773 18.6759 5.45891 18.5661 5.16087V5.13734C18.3622 4.604 18.072 4.11773 17.6955 3.67851C17.3191 3.2393 16.8681 2.89028 16.3426 2.63145C15.8171 2.37263 15.2563 2.21969 14.6603 2.17263C14.5191 2.17263 14.3975 2.20792 14.2955 2.27851C14.1936 2.3491 14.1112 2.4393 14.0485 2.5491C13.9857 2.6589 13.9544 2.77655 13.9544 2.90204V11.8903C13.9544 12.0001 13.9348 12.0981 13.8955 12.1844C13.8563 12.2707 13.8014 12.3491 13.7308 12.4197C13.6603 12.4903 13.5779 12.5452 13.4838 12.5844C13.3897 12.6236 13.2955 12.6432 13.2014 12.6432C12.9975 12.6432 12.821 12.5687 12.672 12.4197C12.523 12.2707 12.4485 12.0942 12.4485 11.8903V2.90204C12.4485 2.66675 12.4877 2.43538 12.5661 2.20792C12.6446 1.98047 12.7504 1.77655 12.8838 1.59616C13.0171 1.41577 13.174 1.25498 13.3544 1.11381C13.5348 0.97263 13.7387 0.862826 13.9661 0.784395C14.1936 0.705964 14.4328 0.666748 14.6838 0.666748C15.8916 0.729493 16.974 1.12557 17.9308 1.85498C18.8877 2.5844 19.5622 3.50596 19.9544 4.61969L19.9779 4.64322C20.0877 4.98832 20.323 5.16087 20.6838 5.16087H20.8485C21.8524 5.19224 22.7034 5.57263 23.4014 6.30204C24.0995 7.03145 24.4485 7.89812 24.4485 8.90204ZM10.2014 12.6432C9.98966 12.6432 9.81319 12.5726 9.67202 12.4315C9.53084 12.2903 9.46025 12.1099 9.46025 11.8903V3.65498C9.46025 3.45106 9.53084 3.27459 9.67202 3.12557C9.81319 2.97655 9.98966 2.90204 10.2014 2.90204C10.4132 2.90204 10.5897 2.97655 10.7308 3.12557C10.872 3.27459 10.9426 3.45106 10.9426 3.65498V11.8903C10.9426 12.0942 10.872 12.2707 10.7308 12.4197C10.5897 12.5687 10.4132 12.6432 10.2014 12.6432ZM7.20143 12.6432C6.99751 12.6432 6.82104 12.5726 6.67202 12.4315C6.523 12.2903 6.44849 12.1099 6.44849 11.8903V3.27851C6.44849 3.07459 6.523 2.89812 6.67202 2.7491C6.82104 2.60008 6.99751 2.52557 7.20143 2.52557C7.32692 2.52557 7.44849 2.55694 7.56613 2.61969C7.68378 2.68243 7.7779 2.77263 7.84849 2.89028C7.91907 3.00792 7.95437 3.13734 7.95437 3.27851V11.8903C7.95437 12.0942 7.87986 12.2707 7.73084 12.4197C7.58182 12.5687 7.40535 12.6432 7.20143 12.6432ZM4.18966 12.6432C4.11123 12.6432 4.0328 12.6315 3.95437 12.6079C3.87594 12.5844 3.80927 12.5491 3.75437 12.502C3.69947 12.455 3.64849 12.4001 3.60143 12.3373C3.55437 12.2746 3.51907 12.2079 3.49555 12.1373C3.47202 12.0667 3.46025 11.9844 3.46025 11.8903V5.89028C3.46025 5.82753 3.46809 5.76479 3.48378 5.70204C3.49947 5.6393 3.523 5.58047 3.55437 5.52557C3.58574 5.47067 3.62496 5.41969 3.67202 5.37263C3.71907 5.32557 3.77006 5.28636 3.82496 5.25498C3.87986 5.22361 3.93868 5.20008 4.00143 5.1844C4.06417 5.16871 4.12692 5.16087 4.18966 5.16087C4.40927 5.16087 4.58966 5.23145 4.73084 5.37263C4.87202 5.51381 4.9426 5.68636 4.9426 5.89028V11.8903C4.9426 12.0942 4.87202 12.2707 4.73084 12.4197C4.58966 12.5687 4.40927 12.6432 4.18966 12.6432ZM1.20143 11.1373C0.997506 11.1373 0.821035 11.0667 0.672016 10.9256C0.522996 10.7844 0.448486 10.6118 0.448486 10.4079V7.39616C0.448486 7.19224 0.522996 7.01577 0.672016 6.86675C0.821035 6.71773 0.997506 6.64322 1.20143 6.64322C1.3426 6.64322 1.46809 6.67851 1.5779 6.7491C1.6877 6.81969 1.7779 6.91381 1.84849 7.03145C1.91907 7.1491 1.95437 7.27067 1.95437 7.39616V10.4079C1.95437 10.6118 1.87986 10.7844 1.73084 10.9256C1.58182 11.0667 1.40535 11.1373 1.20143 11.1373ZM16.1897 11.1373C16.3936 11.1373 16.5701 11.2118 16.7191 11.3609C16.8681 11.5099 16.9426 11.6864 16.9426 11.8903C16.9426 12.0942 16.8681 12.2707 16.7191 12.4197C16.5701 12.5687 16.3936 12.6432 16.1897 12.6432C16.0642 12.6432 15.9426 12.6079 15.825 12.5373C15.7073 12.4667 15.6132 12.3766 15.5426 12.2667C15.472 12.1569 15.4367 12.0354 15.4367 11.902C15.4367 11.7687 15.472 11.6432 15.5426 11.5256C15.6132 11.4079 15.7073 11.3138 15.825 11.2432C15.9426 11.1726 16.0642 11.1373 16.1897 11.1373Z" fill="#FAFAFA" fill-opacity="0.9"/>
</svg>
