<svg width="124" height="124" viewBox="0 0 124 124" fill="none" xmlns="http://www.w3.org/2000/svg">
<g filter="url(#filter0_d)">
<path d="M110.643 13.4563L111.601 12.0121L112.713 13.1233L115.088 9.70057L113.913 8.52522L115.085 6.75863L112.821 4.49875L111.056 5.66698L109.885 4.49341L106.453 6.8637L107.568 7.9785L106.124 8.93303L105.725 11.1876L104.77 11.8198L102.386 9.43344L103.386 8.43261L100.133 6.93671L98.4463 8.62673L99.9387 11.8803L100.939 10.8795L103.032 12.9737L99.7481 15.1553L95.8338 11.2428L94.3842 12.6906L98.8488 17.1587L77.8474 36.6606C74.2359 33.2788 68.8115 28.9977 63.1377 28.9977C58.4933 28.9977 54.6004 31.7722 51.5694 37.2358C51.0352 38.1957 50.6754 39.3176 50.33 40.4022C49.3042 43.6041 48.4173 45.6485 45.2279 45.9316L18.7112 19.415L9.99227 23.0141L12.5513 25.5749L14.0971 27.1207L16.1486 29.174V29.1722L42.391 55.4146C41.9822 56.2017 41.3956 56.8828 40.6778 57.4038C38.2577 59.2167 36.2257 60.1374 34.6355 60.1374C33.7789 60.1374 32.5198 59.8969 31.5065 57.8241C31.0328 56.8606 30.0409 55.8313 28.6786 55.8313C25.7206 55.8313 25.0902 60.2246 24.8836 61.6618C24.7661 62.4667 24.0431 64.3704 19.8848 64.6482C14.8272 64.9883 10.9343 67.8359 9.19801 72.4554C6.85266 78.7079 8.2791 89.3252 19.3256 100.37C26.3955 107.442 34.2081 111.333 41.3243 111.336H41.3278C48.8643 111.336 54.3742 106.726 55.0349 99.866C55.4552 95.5154 57.4319 94.8992 58.0249 94.8138C60.3382 94.4808 63.4583 93.7702 63.8305 91.4213C64.0317 90.1444 63.2642 88.8747 61.8644 88.1891C60.6036 87.5693 59.877 86.8054 59.6437 85.8473C59.2448 84.2071 60.1299 81.917 62.3132 78.9821C62.8249 78.2762 63.4921 77.6973 64.2632 77.2904L86.399 99.4261L90.3969 103.424L93.9996 107.027L96.5586 109.586L100.161 100.867L73.7604 74.4677C74.0649 71.045 76.4103 70.2899 79.2881 69.3692C80.3744 69.0219 81.4963 68.664 82.458 68.128C87.2947 65.4443 90.0319 62.066 90.5875 58.0841C91.469 51.7888 86.6519 45.6895 82.9264 41.7342L102.866 20.2574L103.629 21.0196L105.012 18.936L107.351 21.2742L106.351 22.275L109.605 23.7709L111.291 22.0809L109.796 18.8273L108.797 19.8264L106.166 17.1943L107.6 15.0359L112.967 20.4052L114.415 18.9556L109.179 13.7163L110.643 13.4563ZM53.6655 41.4742C53.9753 40.509 54.2674 39.5972 54.6307 38.9383C57.033 34.6091 59.8165 32.5042 63.1377 32.5042C67.4919 32.5042 72.0668 36.0765 75.2723 39.0541L56.1266 56.8357L48.1199 48.8291C51.7315 47.4186 52.8694 43.9603 53.6655 41.4742ZM64.2222 73.572L58.4167 67.7665L59.8663 66.3151L59.9892 66.438L60.9811 65.3694L69.002 73.3903C68.3128 73.2584 67.613 73.1893 66.9113 73.1838C66.001 73.1833 65.0953 73.314 64.2222 73.572ZM40.3448 81.8885L54.6004 67.6311L55.9147 68.9454L41.6591 83.2009L40.3448 81.8885ZM48.8786 62.7587C48.9498 62.554 48.9979 62.3082 49.0228 62.0535L49.9827 63.0134L49.1653 63.8308C49.2009 63.6421 49.1935 63.4477 49.1439 63.2622C49.0943 63.0766 49.0036 62.9046 48.8786 62.7587ZM50.6469 63.6777L51.9576 64.9884L37.7038 79.2457L36.3931 77.935L50.6469 63.6777ZM55.2486 61.6992L53.799 63.1488L52.4883 61.8381L53.9379 60.3867L55.2486 61.6992ZM59.2056 65.6544L57.7543 67.104L56.4418 65.7915L57.8914 64.3401L59.2056 65.6544ZM55.7775 65.129L54.4615 63.813L55.9111 62.3616L57.2271 63.6777L55.7775 65.129ZM52.6219 65.6526L53.9379 66.9686L39.6823 81.2242L38.3681 79.9117L52.6219 65.6526ZM56.5771 69.6061L57.5388 70.5677C57.2977 70.5891 57.0599 70.638 56.83 70.7137C56.684 70.5884 56.5117 70.4976 56.3258 70.448C56.1399 70.3983 55.9452 70.3912 55.7562 70.427L56.5771 69.6061ZM53.1526 59.5995L53.2737 59.7224L51.8241 61.172L46.1147 55.4627C46.5428 53.9209 46.62 52.3029 46.3409 50.7274L54.2211 58.6076L53.1526 59.5995ZM20.4689 24.859L41.4009 45.791L40.457 45.7251L41.9565 48.5245C42.0241 48.6492 42.895 50.3303 42.9947 52.3462L17.9882 27.338L20.4689 24.859ZM12.4819 73.6949C13.7302 70.3683 16.4442 68.3969 20.1217 68.1529C27.0153 67.6881 28.1639 63.4604 28.3509 62.1711C28.4827 61.2468 28.6358 60.5933 28.7747 60.1391C30.4915 63.0134 32.876 63.6474 34.6372 63.6474C38.1953 63.6456 41.6448 61.0634 42.8113 60.189C43.7159 59.5123 44.3944 58.7572 44.9358 57.9683L46.795 59.8275C42.1435 59.5087 35.8856 71.2979 33.1609 68.575C32.4806 67.8893 32.6552 67.291 32.8422 66.9633C33.0361 66.9931 33.2343 66.9777 33.4212 66.918C33.6082 66.8584 33.7787 66.7562 33.9196 66.6196C34.0393 66.5001 34.1343 66.3582 34.1992 66.2019C34.2641 66.0457 34.2976 65.8782 34.2978 65.7091C34.2979 65.5399 34.2648 65.3724 34.2002 65.216C34.1356 65.0596 34.0408 64.9175 33.9213 64.7978C33.8018 64.6781 33.6599 64.583 33.5037 64.5181C33.3475 64.4533 33.18 64.4198 33.0108 64.4196C32.8416 64.4194 32.6741 64.4526 32.5177 64.5172C32.3614 64.5818 32.2193 64.6765 32.0996 64.796C31.8992 65.0018 31.774 65.2691 31.7443 65.5547C31.7146 65.8404 31.782 66.1277 31.9357 66.3703C31.5635 66.9152 30.8458 68.3096 32.1369 69.5989C36.557 74.0207 44.8201 58.8391 47.6338 61.6546C47.8172 61.8363 47.8332 62.107 47.8065 62.3438C47.5066 62.3622 47.2234 62.488 47.0087 62.6982C46.7675 62.9396 46.632 63.2669 46.632 63.6082C46.632 63.9495 46.7675 64.2768 47.0087 64.5182C47.1565 64.6628 47.3376 64.769 47.536 64.8273C47.7344 64.8857 47.9441 64.8945 48.1467 64.853L35.7289 77.2743L34.5714 76.1168C34.5714 76.1168 32.3685 79.7942 31.868 81.1281C31.4157 82.323 31.3445 84.9907 30.7283 86.1073C29.2075 88.8551 23.2274 94.1851 20.5045 96.5358C11.8301 87.1669 10.6939 78.455 12.4819 73.6949ZM59.4603 76.952C58.4203 78.3517 55.2522 82.6097 56.2405 86.6789C56.6679 88.4437 57.7845 89.8702 59.5618 90.9298C58.895 91.1218 58.2145 91.2629 57.5263 91.3518C56.2922 91.5317 52.2141 92.6465 51.548 99.5365C51.0548 104.66 47.1369 107.841 41.3278 107.841H41.3261C37.9211 107.841 31.1504 106.656 23.0547 99.1002C25.4036 96.3791 30.7372 90.3884 33.485 88.8693C34.6034 88.2496 37.2729 88.1784 38.466 87.726C39.8017 87.2274 43.4773 85.0227 43.4773 85.0227L42.3198 83.8652L54.7393 71.4439C54.6981 71.6462 54.7071 71.8555 54.7654 72.0536C54.8238 72.2517 54.9298 72.4324 55.0741 72.5801C55.1936 72.7002 55.3357 72.7956 55.4921 72.8607C55.6486 72.9258 55.8164 72.9593 55.9859 72.9593C56.1554 72.9593 56.3232 72.9258 56.4796 72.8607C56.6361 72.7956 56.7782 72.7002 56.8977 72.5801C57.106 72.3666 57.2306 72.0853 57.2485 71.7876C57.4818 71.7555 57.7525 71.7769 57.9341 71.955C60.7532 74.7705 45.5733 83.0407 49.9934 87.4643C51.2845 88.7536 52.6789 88.0341 53.222 87.6619C53.4642 87.8163 53.7516 87.8836 54.0371 87.8528C54.3225 87.8221 54.589 87.6951 54.7927 87.4928C54.913 87.3738 55.0084 87.2323 55.0736 87.0762C55.1387 86.9202 55.1722 86.7527 55.1722 86.5836C55.1722 86.4145 55.1387 86.2471 55.0736 86.0911C55.0084 85.935 54.913 85.7934 54.7927 85.6745C54.6734 85.5547 54.5316 85.4596 54.3755 85.3947C54.2193 85.3298 54.0518 85.2964 53.8827 85.2964C53.7136 85.2964 53.5462 85.3298 53.39 85.3947C53.2338 85.4596 53.092 85.5547 52.9727 85.6745C52.8361 85.815 52.734 85.9853 52.6743 86.1719C52.6147 86.3586 52.5992 86.5565 52.629 86.7501C52.2996 86.9425 51.7012 87.1206 51.0209 86.4349C48.298 83.7103 60.0872 77.4506 59.7648 72.7955L61.7237 74.7544C60.8536 75.3576 60.0889 76.1001 59.4603 76.952ZM67.3601 76.7116C68.6847 76.8115 69.9784 77.1613 71.1728 77.7427L73.983 79.2707L73.9136 78.3019L94.7208 99.1074L92.2383 101.588L88.2386 97.5883H88.2368L67.3601 76.7116ZM87.1202 57.5979C86.7231 60.4312 84.5825 62.9422 80.7573 65.0632C80.0984 65.43 79.1866 65.7221 78.2196 66.0319C75.7122 66.8351 72.2698 67.9677 70.8683 71.5739L62.7531 63.4586L80.5365 44.3075C83.7936 47.7926 87.7809 52.8858 87.1202 57.5979Z" fill="#7E7E7E"/>
</g>
<defs>
<filter id="filter0_d" x="0.236328" y="0.493408" width="122.852" height="122.843" filterUnits="userSpaceOnUse" color-interpolation-filters="sRGB">
<feFlood flood-opacity="0" result="BackgroundImageFix"/>
<feColorMatrix in="SourceAlpha" type="matrix" values="0 0 0 0 0 0 0 0 0 0 0 0 0 0 0 0 0 0 127 0"/>
<feOffset dy="4"/>
<feGaussianBlur stdDeviation="4"/>
<feColorMatrix type="matrix" values="0 0 0 0 0 0 0 0 0 0 0 0 0 0 0 0 0 0 0.15 0"/>
<feBlend mode="normal" in2="BackgroundImageFix" result="effect1_dropShadow"/>
<feBlend mode="normal" in="SourceGraphic" in2="effect1_dropShadow" result="shape"/>
</filter>
</defs>
</svg>
