<svg width="25" height="18" viewBox="0 0 25 18" fill="none" xmlns="http://www.w3.org/2000/svg">
<path d="M24.4485 8.62768C24.4485 8.56875 24.4485 8.50179 24.4458 8.42411C24.4431 8.20714 24.4378 7.96339 24.4324 7.70357C24.411 6.95625 24.3735 6.21161 24.3146 5.50982C24.2342 4.54286 24.1163 3.73661 23.9556 3.13125C23.786 2.49951 23.4536 1.92334 22.9915 1.46035C22.5295 0.997351 21.954 0.663739 21.3226 0.492857C20.5646 0.289286 19.0806 0.163393 16.9913 0.0857142C15.9976 0.0482142 14.9342 0.024107 13.8708 0.0107141C13.4985 0.00535698 13.153 0.00267857 12.8422 0H12.0547C11.744 0.00267857 11.3985 0.00535698 11.0262 0.0107141C9.96277 0.024107 8.89938 0.0482142 7.90563 0.0857142C5.81634 0.166071 4.32974 0.291964 3.57438 0.492857C2.94277 0.66332 2.36706 0.996791 1.90494 1.45985C1.44282 1.92291 1.11052 2.4993 0.941344 3.13125C0.777951 3.73661 0.662772 4.54286 0.582415 5.50982C0.523486 6.21161 0.485986 6.95625 0.464558 7.70357C0.456522 7.96339 0.453843 8.20714 0.451165 8.42411C0.451165 8.50179 0.448486 8.56875 0.448486 8.62768V8.77768C0.448486 8.83661 0.448486 8.90357 0.451165 8.98125C0.453843 9.19822 0.459201 9.44196 0.464558 9.70179C0.485986 10.4491 0.523486 11.1938 0.582415 11.8955C0.662772 12.8625 0.780629 13.6688 0.941344 14.2741C1.2842 15.5571 2.29134 16.5696 3.57438 16.9125C4.32974 17.1161 5.81634 17.242 7.90563 17.3196C8.89938 17.3571 9.96277 17.3813 11.0262 17.3946C11.3985 17.4 11.744 17.4027 12.0547 17.4054H12.8422C13.153 17.4027 13.4985 17.4 13.8708 17.3946C14.9342 17.3813 15.9976 17.3571 16.9913 17.3196C19.0806 17.2393 20.5672 17.1134 21.3226 16.9125C22.6056 16.5696 23.6128 15.5598 23.9556 14.2741C24.119 13.6688 24.2342 12.8625 24.3146 11.8955C24.3735 11.1938 24.411 10.4491 24.4324 9.70179C24.4405 9.44196 24.4431 9.19822 24.4458 8.98125C24.4458 8.90357 24.4485 8.83661 24.4485 8.77768V8.62768ZM22.5199 8.76697C22.5199 8.82322 22.5199 8.88482 22.5172 8.95714C22.5146 9.16607 22.5092 9.39643 22.5038 9.64554C22.4851 10.358 22.4476 11.0705 22.3913 11.7321C22.319 12.5946 22.2172 13.3018 22.0913 13.7759C21.9253 14.3946 21.4378 14.8848 20.8217 15.0482C20.2592 15.1982 18.8422 15.3188 16.9163 15.3911C15.9413 15.4286 14.8913 15.4527 13.844 15.4661C13.4771 15.4714 13.1369 15.4741 12.8315 15.4741H12.0655L11.053 15.4661C10.0056 15.4527 8.95831 15.4286 7.98063 15.3911C6.05474 15.3161 4.63509 15.1982 4.07527 15.0482C3.4592 14.8821 2.9717 14.3946 2.80563 13.7759C2.67974 13.3018 2.57795 12.5946 2.50563 11.7321C2.44938 11.0705 2.41456 10.358 2.39313 9.64554C2.38509 9.39643 2.38242 9.16339 2.37974 8.95714C2.37974 8.88482 2.37706 8.82054 2.37706 8.76697V8.63839C2.37706 8.58214 2.37706 8.52054 2.37974 8.44821C2.38242 8.23929 2.38777 8.00893 2.39313 7.75982C2.41188 7.04732 2.44938 6.33482 2.50563 5.67321C2.57795 4.81071 2.67974 4.10357 2.80563 3.62946C2.9717 3.01071 3.4592 2.52054 4.07527 2.35714C4.63777 2.20714 6.05474 2.08661 7.98063 2.01429C8.95563 1.97679 10.0056 1.95268 11.053 1.93929C11.4199 1.93393 11.7601 1.93125 12.0655 1.93125H12.8315L13.844 1.93929C14.8913 1.95268 15.9387 1.97679 16.9163 2.01429C18.8422 2.08929 20.2619 2.20714 20.8217 2.35714C21.4378 2.52321 21.9253 3.01071 22.0913 3.62946C22.2172 4.10357 22.319 4.81071 22.3913 5.67321C22.4476 6.33482 22.4824 7.04732 22.5038 7.75982C22.5119 8.00893 22.5146 8.24196 22.5172 8.44821C22.5172 8.52054 22.5199 8.58482 22.5199 8.63839V8.76697ZM10.0646 12.292L16.2788 8.67589L10.0646 5.11339V12.292Z" fill="#FAFAFA" fill-opacity="0.9"/>
</svg>
